<?xml version="1.0" encoding="UTF-8" standalone="no"?>
<svg
   xmlns="http://www.w3.org/2000/svg"
   id="svg48"
   xml:space="preserve"
   viewBox="0 0 854 209"
   height="209"
   width="854"
   version="1.1"><desc
     id="desc2">Created with Fabric.js 2.4.6</desc><defs
     id="defs4" /><g
     id="g8"
     transform="matrix(1.11,0,0,1.11,52.51,49.37)"><path
       id="path6"
       d="m 92.5,11.25 h -85 c -1.381,0 -2.5,1.119 -2.5,2.5 v 50 c 0,1.381 1.119,2.5 2.5,2.5 h 29.45 l -1.753,8.769 -9.464,9.464 c -0.715,0.715 -0.929,1.79 -0.542,2.725 0.387,0.934 1.298,1.543 2.31,1.543 h 45 c 0.008,10e-4 0.015,10e-4 0.02,0 1.381,0 2.5,-1.119 2.5,-2.5 0,-0.786 -0.362,-1.488 -0.93,-1.946 L 64.804,75.019 63.05,66.251 H 92.5 c 1.381,0 2.5,-1.119 2.5,-2.5 v -50 C 95,12.369 93.881,11.25 92.5,11.25 Z m -58.964,72.5 5,-5 h 22.929 l 5,5 z m 25.914,-10 H 40.549 l 1.5,-7.5 H 57.95 Z M 90,61.25 H 10 v -45 h 80 z"
       transform="translate(-50,-50)"
       style="opacity:1;fill:#000000;fill-rule:nonzero;stroke:none;stroke-width:1;stroke-linecap:butt;stroke-linejoin:miter;stroke-miterlimit:4;stroke-dasharray:none;stroke-dashoffset:0" /></g><g
     id="g18"
     transform="translate(165.56,52.36)"><g
       id="g12"
       transform="matrix(1.11,0,0,1.11,-0.05,-0.05)"><path
         id="path10"
         d="M 92.5,30 H 70 V 7.5 C 70,6.119 68.881,5 67.5,5 H 7.5 C 6.119,5 5,6.119 5,7.5 v 85 C 5,93.881 6.119,95 7.5,95 h 85 c 1.381,0 2.5,-1.119 2.5,-2.5 v -60 C 95,31.119 93.881,30 92.5,30 Z M 10,10 H 65 V 80 H 10 Z M 35,87.5 C 35,86.119 36.119,85 37.5,85 38.881,85 40,86.119 40,87.5 40,88.881 38.881,90 37.5,90 36.119,90 35,88.881 35,87.5 Z M 90,90 H 70 V 35 h 20 z"
         transform="translate(-50,-50)"
         style="opacity:1;fill:#000000;fill-rule:nonzero;stroke:none;stroke-width:1;stroke-linecap:butt;stroke-linejoin:miter;stroke-miterlimit:4;stroke-dasharray:none;stroke-dashoffset:0" /></g><g
       id="g16"
       transform="matrix(1.11,0,0,1.11,-11.69,-5.58)"><path
         id="path14"
         d="m 37.5,65 v -5 c -8.271,0 -15,-6.729 -15,-15 0,-8.271 6.729,-15 15,-15 8.271,0 15,6.729 15,15 H 48.505 L 55,56.25 61.495,45 H 57.5 c 0,-11.028 -8.972,-20 -20,-20 -11.028,0 -20,8.972 -20,20 0,11.028 8.972,20 20,20 z"
         transform="translate(-39.5,-45)"
         style="opacity:1;fill:#000000;fill-rule:nonzero;stroke:none;stroke-width:1;stroke-linecap:butt;stroke-linejoin:miter;stroke-miterlimit:4;stroke-dasharray:none;stroke-dashoffset:0" /></g></g><g
     id="g36"
     transform="translate(111.77,158.44)"><g
       id="g22"
       transform="matrix(1.06,0,0,1.06,6.11,-17.71)"><path
         id="path20"
         d="M 68,30.72 H 43.47 a 2.5,2.5 0 1 0 0,5 H 68 a 2.5,2.5 0 1 0 0,-5 z"
         transform="translate(-55.73,-33.22)"
         style="opacity:1;fill:#000000;fill-rule:nonzero;stroke:none;stroke-width:1;stroke-linecap:butt;stroke-linejoin:miter;stroke-miterlimit:4;stroke-dasharray:none;stroke-dashoffset:0" /></g><g
       id="g26"
       transform="matrix(1.06,0,0,1.06,-27.67,-17.24)"><path
         id="path24"
         d="m 29.36,26.93 -8,8.19 -3.26,-3.18 a 2.5,2.5 0 0 0 -3.51,3.56 l 5,4.93 a 2.5,2.5 0 0 0 1.75,0.72 v 0 A 2.5,2.5 0 0 0 23.1,40.4 l 9.78,-10 a 2.5,2.5 0 1 0 -3.57,-3.5 z"
         transform="translate(-23.75,-33.64)"
         style="opacity:1;fill:#000000;fill-rule:nonzero;stroke:none;stroke-width:1;stroke-linecap:butt;stroke-linejoin:miter;stroke-miterlimit:4;stroke-dasharray:none;stroke-dashoffset:0" /></g><g
       id="g30"
       transform="matrix(1.06,0,0,1.06,-27.7,3.11)"><path
         id="path28"
         d="m 29.36,46.19 -8,8.19 -3.26,-3.18 a 2.5,2.5 0 0 0 -3.51,3.56 l 5,4.93 a 2.5,2.5 0 0 0 1.75,0.72 v 0 a 2.5,2.5 0 0 0 1.76,-0.75 l 9.78,-10 a 2.5,2.5 0 0 0 -3.57,-3.5 z"
         transform="translate(-23.72,-52.92)"
         style="opacity:1;fill:#000000;fill-rule:nonzero;stroke:none;stroke-width:1;stroke-linecap:butt;stroke-linejoin:miter;stroke-miterlimit:4;stroke-dasharray:none;stroke-dashoffset:0" /></g><g
       id="g34"
       transform="matrix(1.06,0,0,1.06,0.21,0.2)"><path
         id="path32"
         d="M 80.35,48.6 V 16.66 A 12.51,12.51 0 0 0 67.85,4.16 H 15.16 a 12.51,12.51 0 0 0 -12.5,12.5 v 47.05 a 12.51,12.51 0 0 0 12.5,12.5 H 49.44 A 24.17,24.17 0 1 0 80.35,48.6 Z M 15.16,9.16 h 52.69 a 7.51,7.51 0 0 1 7.38,6.2 H 7.78 a 7.51,7.51 0 0 1 7.38,-6.2 z M 62,50 H 43.47 a 2.5,2.5 0 0 0 0,5 H 55.73 A 24.07,24.07 0 0 0 49,71.21 H 15.16 a 7.51,7.51 0 0 1 -7.5,-7.5 V 20.36 h 67.69 v 27.25 c -0.72,-0.06 -1.45,-0.1 -2.18,-0.1 A 24,24 0 0 0 62.46,50 2.5,2.5 0 0 0 62,50 Z m 19.9,19.71 -9.78,10 a 2.5,2.5 0 0 1 -1.76,0.75 v 0 a 2.5,2.5 0 0 1 -1.75,-0.72 l -5,-4.93 A 2.5105876,2.5105876 0 1 1 67.1,71.2 l 3.23,3.18 8,-8.19 a 2.5,2.5 0 0 1 3.57,3.5 z"
         transform="translate(-50.01,-50.01)"
         style="opacity:1;fill:#000000;fill-rule:nonzero;stroke:none;stroke-width:1;stroke-linecap:butt;stroke-linejoin:miter;stroke-miterlimit:4;stroke-dasharray:none;stroke-dashoffset:0" /></g></g><g
     id="g42"
     transform="translate(522.63,100.07)"><g
       id="text40"
       style="font-style:normal;font-weight:normal;font-size:124px;font-family:Ubuntu;white-space:pre;opacity:1;fill:#000000;fill-rule:nonzero;stroke:none;stroke-width:1;stroke-linecap:butt;stroke-linejoin:miter;stroke-miterlimit:4;stroke-dasharray:none;stroke-dashoffset:0"
       aria-label="Testy INC."><path
         id="path54"
         style=""
         d="m -212.78399,-46.981999 v 10.416 h -27.032 v 75.516 h -12.028 v -75.516 h -27.032 v -10.416 z" /><path
         id="path56"
         style=""
         d="m -211.08286,6.8340008 q 0,-8.556 2.48,-14.88 2.48,-6.4479998 6.572,-10.6639998 4.092,-4.216 9.424,-6.324 5.332,-2.108 10.912,-2.108 13.02,0 19.964,8.184 6.944,8.06 6.944,24.6759998 0,0.744 0,1.984 0,1.116 -0.124,2.108 h -44.144 q 0.744,10.0440002 5.828,15.2520002 5.084,5.208 15.872,5.208 6.076,0 10.168,-0.992 4.216,-1.116 6.324,-2.108 l 1.612,9.672 q -2.108,1.116 -7.44,2.356 -5.208,1.24 -11.904,1.24 -8.432,0 -14.632,-2.48 -6.076,-2.604 -10.044,-7.068 -3.968,-4.464 -5.952,-10.54 -1.86,-6.2 -1.86,-13.5160002 z m 44.268,-6.32400004 q 0.124,-7.81199996 -3.968,-12.77199976 -3.968,-5.084 -11.036,-5.084 -3.968,0 -7.068,1.612 -2.976,1.488 -5.084,3.968 -2.108,2.4799998 -3.348,5.7039998 -1.116,3.224 -1.488,6.57199996 z" /><path
         id="path58"
         style=""
         d="m -123.21724,30.642001 q 7.068,0 10.416,-1.86 3.472,-1.86 3.472,-5.952 0,-4.216 -3.348,-6.696 -3.348,-2.48 -11.036,-5.58 -3.72,-1.4880002 -7.192,-2.9760002 -3.348,-1.612 -5.828,-3.72 -2.48,-2.108 -3.968,-5.084 -1.488,-2.976 -1.488,-7.316 0,-8.5559998 6.324,-13.5159998 6.324,-5.084 17.236,-5.084 2.728,0 5.456,0.372 2.728,0.248 5.084,0.744 2.356,0.372 4.092,0.868 1.86,0.496 2.852,0.868 l -2.108,9.92 q -1.86,-0.992 -5.828,-1.984 -3.968,-1.116 -9.548,-1.116 -4.836,0 -8.432,1.984 -3.596,1.86 -3.596,5.9519998 0,2.108 0.744,3.72 0.868,1.612 2.48,2.976 1.736,1.24 4.216,2.35599996 2.48,1.116 5.952,2.35600004 4.588,1.736 8.184,3.472 3.596,1.612 6.076,3.844 2.604,2.2320002 3.968005,5.4560002 1.364,3.1 1.364,7.688 0,8.928 -6.696005,13.516 -6.572,4.588 -18.848,4.588 -8.556,0 -13.392,-1.488 -4.836,-1.364 -6.572,-2.108 l 2.108,-9.92 q 1.984,0.744 6.324,2.232 4.34,1.488 11.532,1.488 z" /><path
         id="path60"
         style=""
         d="m -72.214485,-25.529999 h 24.428 v 9.672 h -24.428 v 29.76 q 0,4.836 0.744,8.06 0.744,3.1 2.232,4.96 1.488,1.736 3.72,2.48 2.232,0.744 5.208,0.744 5.208,0 8.308,-1.116 3.224,-1.24 4.464,-1.736 l 2.232,9.548 q -1.736,0.868 -6.076,2.108 -4.34,1.364 -9.92,1.364 -6.572,0 -10.912,-1.612 -4.216,-1.736 -6.82,-5.084 -2.604,-3.348 -3.72,-8.184 -0.992,-4.96 -0.992,-11.408 v -57.536 l 11.532,-1.984 z" /><path
         id="path62"
         style=""
         d="m -40.67586,50.978001 q 1.364,0.62 3.472,1.116 2.232,0.62 4.34,0.62 6.82,0 10.664,-3.1 3.844,-2.976 6.944,-9.796 -7.812,-14.88 -14.632,-31.4960002 -6.696,-16.74 -11.16,-33.8519998 h 12.4 q 1.364,5.58 3.224,12.028 1.984,6.4479998 4.34,13.26799976 2.356,6.82000004 5.084,13.64000024 2.728,6.82 5.704,13.144 4.7119996,-13.02 8.1839996,-25.79200024 3.472,-12.77199976 6.572,-26.28799976 H 16.36414 q -4.464,18.2279998 -9.9200004,35.0919998 -5.45599995,16.7400002 -11.78,31.3720002 -2.48,5.58 -5.2079996,9.548 -2.604,4.092 -5.828,6.696 -3.224,2.604 -7.316,3.844 -3.968,1.24 -9.052,1.24 -1.364,0 -2.852,-0.248 -1.488,-0.124 -2.976,-0.496 -1.364,-0.248 -2.604,-0.62 -1.116,-0.372 -1.612,-0.62 z" /><path
         id="path64"
         style=""
         d="m 57.72589,-46.981999 h 12.028 v 85.932 h -12.028 z" /><path
         id="path66"
         style=""
         d="m 150.04776,38.950001 q -2.728,-4.588 -6.324,-10.292 -3.472,-5.704 -7.564,-11.78 -4.092,-6.2 -8.556,-12.5240002 -4.34,-6.324 -8.68,-12.152 -4.34,-5.9519998 -8.432,-11.1599998 -4.092,-5.208 -7.564,-9.176 v 67.084 H 91.147765 v -85.932 h 9.547995 q 5.828,6.2 12.4,14.508 6.696,8.184 13.144,16.988 6.572,8.6799998 12.276,17.1119998 5.828,8.4320002 9.796,15.0040002 v -63.612 h 11.78 v 85.932 z" /><path
         id="path68"
         style=""
         d="m 218.4357,40.810001 q -9.052,0 -16.492,-2.976 -7.44,-2.976 -12.772,-8.68 -5.332,-5.704 -8.308,-14.012 -2.852,-8.4320002 -2.852,-19.2200002 0,-10.7879998 3.224,-19.0959998 3.348,-8.432 8.928,-14.136 5.58,-5.704 13.02,-8.68 7.44,-2.976 15.872,-2.976 5.332,0 9.548,0.744 4.34,0.744 7.44,1.736 3.224,0.992 5.208,1.984 1.984,0.992 2.728,1.488 l -3.472,9.92 q -1.116,-0.744 -3.224,-1.612 -2.108,-0.868 -4.836,-1.736 -2.604,-0.868 -5.828,-1.364 -3.1,-0.62 -6.324,-0.62 -6.82,0 -12.276,2.356 -5.456,2.356 -9.3,6.82 -3.844,4.464 -5.952,10.912 -1.984,6.324 -1.984,14.2599998 0,7.688 1.736,14.012 1.86,6.3240002 5.456,10.9120002 3.596,4.464 8.928,6.944 5.456,2.48 12.648,2.48 8.308,0 13.764,-1.736 5.456,-1.736 8.184,-3.1 l 3.1,9.92 q -0.868,0.62 -3.1,1.612 -2.232,0.868 -5.58,1.736 -3.348,0.868 -7.812,1.488 -4.464,0.62 -9.672,0.62 z" /><path
         id="path70"
         style=""
         d="m 273.8172,32.254001 q 0,3.348 -2.232,5.828 -2.232,2.48 -6.076,2.48 -3.844,0 -6.076,-2.48 -2.232,-2.48 -2.232,-5.828 0,-3.348 2.232,-5.828 2.232,-2.48 6.076,-2.48 3.844,0 6.076,2.48 2.232,2.48 2.232,5.828 z" /></g></g><g
     id="g46"
     transform="matrix(4.33,0,0,-4.33,527.92,168.84)"><path
       id="line44"
       d="M -75,0 H 75"
       style="opacity:1;fill:#000000;fill-rule:nonzero;stroke:#000000;stroke-width:2;stroke-linecap:butt;stroke-linejoin:miter;stroke-miterlimit:4;stroke-dasharray:none;stroke-dashoffset:0" /></g></svg>